<svg width="20" height="21" viewBox="0 0 20 21" fill="none" xmlns="http://www.w3.org/2000/svg">
<path d="M9.99984 2.16675C14.6023 2.16675 18.3332 5.89758 18.3332 10.5001C18.3332 15.1026 14.6023 18.8334 9.99984 18.8334C5.39734 18.8334 1.6665 15.1026 1.6665 10.5001C1.6665 5.89758 5.39734 2.16675 9.99984 2.16675ZM9.99984 3.83341C8.23173 3.83341 6.53603 4.53579 5.28579 5.78604C4.03555 7.03628 3.33317 8.73197 3.33317 10.5001C3.33317 12.2682 4.03555 13.9639 5.28579 15.2141C6.53603 16.4644 8.23173 17.1667 9.99984 17.1667C11.7679 17.1667 13.4636 16.4644 14.7139 15.2141C15.9641 13.9639 16.6665 12.2682 16.6665 10.5001C16.6665 8.73197 15.9641 7.03628 14.7139 5.78604C13.4636 4.53579 11.7679 3.83341 9.99984 3.83341ZM8.81734 6.96425C8.96696 6.8132 9.16865 6.72505 9.38113 6.71785C9.59361 6.71064 9.80081 6.78491 9.96032 6.92547C10.1198 7.06603 10.2196 7.26224 10.2392 7.47393C10.2588 7.68563 10.1967 7.89681 10.0657 8.06425L9.99567 8.14258L8.47234 9.66758H13.5357C13.7469 9.66966 13.9494 9.75186 14.1023 9.89756C14.2552 10.0433 14.3471 10.2416 14.3594 10.4524C14.3717 10.6633 14.3034 10.8709 14.1685 11.0334C14.0335 11.1958 13.8419 11.301 13.6323 11.3276L13.5357 11.3334H8.47234L9.9965 12.8567C10.1475 13.0064 10.2357 13.2081 10.2429 13.4205C10.2501 13.633 10.1758 13.8402 10.0353 13.9997C9.89473 14.1592 9.69852 14.259 9.48682 14.2786C9.27512 14.2982 9.06394 14.2361 8.8965 14.1051L8.81734 14.0351L5.8715 11.0892C5.72802 10.9458 5.64183 10.7548 5.6291 10.5523C5.61636 10.3498 5.67796 10.1496 5.80234 9.98925L5.8715 9.91091L8.81734 6.96425Z" fill="#121212"/>
</svg>
