<svg width="16" height="15" viewBox="0 0 16 15" fill="none" xmlns="http://www.w3.org/2000/svg">
<path d="M8 3.125C10.2994 3.125 13.1012 4.63563 14.0812 6.81313C14.1725 7.01813 14.25 7.25688 14.25 7.5C14.25 7.7425 14.1731 7.98187 14.0812 8.18687C13.1006 10.3644 10.2987 11.875 8 11.875C5.70062 11.875 2.89875 10.3644 1.91875 8.18687C1.8275 7.98125 1.75 7.74312 1.75 7.5C1.75 7.2575 1.82687 7.01813 1.91875 6.81313C2.89937 4.63563 5.70125 3.125 8 3.125ZM8 5C7.33696 5 6.70107 5.26339 6.23223 5.73223C5.76339 6.20107 5.5 6.83696 5.5 7.5C5.5 8.16304 5.76339 8.79893 6.23223 9.26777C6.70107 9.73661 7.33696 10 8 10C8.66304 10 9.29893 9.73661 9.76777 9.26777C10.2366 8.79893 10.5 8.16304 10.5 7.5C10.5 6.83696 10.2366 6.20107 9.76777 5.73223C9.29893 5.26339 8.66304 5 8 5ZM8 6.25C8.33152 6.25 8.64946 6.3817 8.88388 6.61612C9.1183 6.85054 9.25 7.16848 9.25 7.5C9.25 7.83152 9.1183 8.14946 8.88388 8.38388C8.64946 8.6183 8.33152 8.75 8 8.75C7.66848 8.75 7.35054 8.6183 7.11612 8.38388C6.8817 8.14946 6.75 7.83152 6.75 7.5C6.75 7.16848 6.8817 6.85054 7.11612 6.61612C7.35054 6.3817 7.66848 6.25 8 6.25Z" fill="#1C1C1C"/>
</svg>
