<svg width="16" height="15" viewBox="0 0 16 15" fill="none" xmlns="http://www.w3.org/2000/svg">
<g clip-path="url(#clip0_1676_13401)">
<path fill-rule="evenodd" clip-rule="evenodd" d="M9.58437 7.64062L12.2356 10.2925L9.58375 12.9444C9.46657 13.0616 9.30762 13.1275 9.14187 13.1275H7.375C7.20924 13.1275 7.05027 13.0617 6.93306 12.9444C6.81585 12.8272 6.75 12.6683 6.75 12.5025V10.7344C6.75004 10.5686 6.81591 10.4097 6.93313 10.2925L9.585 7.64062H9.58437ZM11.125 1.25C11.4404 1.2499 11.7441 1.369 11.9753 1.58344C12.2066 1.79787 12.3482 2.09178 12.3719 2.40625L12.375 2.5V5.0125C11.9028 4.92293 11.4164 4.94356 10.9535 5.07277C10.4906 5.20199 10.0638 5.43632 9.70625 5.7575L9.58375 5.87313L6.04875 9.40875C5.72744 9.73009 5.53377 10.1572 5.50375 10.6106L5.49938 10.7344V12.5025C5.49943 12.6723 5.52256 12.8414 5.56813 13.005L5.60562 13.125H3.625C3.30964 13.1251 3.0059 13.006 2.77466 12.7916C2.54342 12.5771 2.40178 12.2832 2.37813 11.9688L2.375 11.875V2.5C2.3749 2.18464 2.494 1.8809 2.70844 1.64966C2.92287 1.41842 3.21678 1.27678 3.53125 1.25313L3.625 1.25H11.125ZM13.1194 6.75688C13.2935 6.93099 13.4317 7.1377 13.5259 7.36521C13.6202 7.59271 13.6687 7.83656 13.6687 8.08281C13.6687 8.32907 13.6202 8.57291 13.5259 8.80042C13.4317 9.02792 13.2935 9.23464 13.1194 9.40875L10.4688 6.75625C10.8204 6.40474 11.2972 6.20728 11.7944 6.20728C12.2916 6.20728 12.7684 6.40474 13.12 6.75625L13.1194 6.75688ZM7.375 3.75H4.875C4.70924 3.75 4.55027 3.81585 4.43306 3.93306C4.31585 4.05027 4.25 4.20924 4.25 4.375C4.25 4.54076 4.31585 4.69973 4.43306 4.81694C4.55027 4.93415 4.70924 5 4.875 5H7.375C7.54076 5 7.69973 4.93415 7.81694 4.81694C7.93415 4.69973 8 4.54076 8 4.375C8 4.20924 7.93415 4.05027 7.81694 3.93306C7.69973 3.81585 7.54076 3.75 7.375 3.75Z" fill="#121212"/>
</g>
<defs>
<clipPath id="clip0_1676_13401">
<rect width="15" height="15" fill="white" transform="translate(0.5)"/>
</clipPath>
</defs>
</svg>
