<svg width="205" height="28" viewBox="0 0 205 28" fill="none" xmlns="http://www.w3.org/2000/svg">
<rect x="8" y="2" width="24" height="24" rx="4" fill="#487DE7"/>
<path d="M20.0001 19.3994L15.3236 11.2994L24.6767 11.2994L20.0001 19.3994Z" fill="white"/>
<path d="M44.75 19.5V7.86364H47.9091V16.9545H52.6136V19.5H44.75ZM53.8906 19.5V7.86364H62.277V10.4091H57.0497V12.4091H61.8452V14.9545H57.0497V16.9545H62.2543V19.5H53.8906ZM67.2301 7.86364L69.1392 11.25H69.2301L71.1619 7.86364H74.6847L71.2074 13.6818L74.821 19.5H71.2074L69.2301 16.0455H69.1392L67.1619 19.5H63.571L67.1392 13.6818L63.6847 7.86364H67.2301ZM79.206 7.86364V19.5H76.0469V7.86364H79.206ZM87.5895 7.86364H90.7486V15.3182C90.7486 16.2045 90.5365 16.9716 90.1122 17.6193C89.6918 18.2633 89.1046 18.7614 88.3509 19.1136C87.5971 19.4621 86.7221 19.6364 85.7259 19.6364C84.7221 19.6364 83.8433 19.4621 83.0895 19.1136C82.3357 18.7614 81.7486 18.2633 81.3281 17.6193C80.9115 16.9716 80.7031 16.2045 80.7031 15.3182V7.86364H83.8622V15.0455C83.8622 15.4053 83.9418 15.7273 84.1009 16.0114C84.2599 16.2917 84.4796 16.5114 84.7599 16.6705C85.044 16.8295 85.366 16.9091 85.7259 16.9091C86.0895 16.9091 86.4115 16.8295 86.6918 16.6705C86.9721 16.5114 87.1918 16.2917 87.3509 16.0114C87.5099 15.7273 87.5895 15.4053 87.5895 15.0455V7.86364ZM92.25 7.86364H96.1818L98.8864 14.4545H99.0227L101.727 7.86364H105.659V19.5H102.568V12.7727H102.477L99.8864 19.4091H98.0227L95.4318 12.7273H95.3409V19.5H92.25V7.86364Z" fill="#487DE7"/>
</svg>
