<svg width="97" height="28" viewBox="0 0 97 28" fill="none" xmlns="http://www.w3.org/2000/svg">
<rect y="2" width="24" height="24" rx="4" fill="#487DE7"/>
<path d="M12.0001 19.3994L7.32361 11.2994L16.6767 11.2994L12.0001 19.3994Z" fill="white"/>
<path d="M37.1477 19.5V7.86364H39.2557V17.733H44.3807V19.5H37.1477ZM46.2102 19.5V7.86364H53.7784V9.63068H48.3182V12.7898H53.3864V14.5568H48.3182V17.733H53.8239V19.5H46.2102ZM57.6903 7.86364L60.2528 12.125H60.3438L62.9176 7.86364H65.321L61.7358 13.6818L65.3778 19.5H62.9347L60.3438 15.267H60.2528L57.6619 19.5H55.2301L58.9062 13.6818L55.2756 7.86364H57.6903ZM69.0838 7.86364V19.5H66.9759V7.86364H69.0838ZM78.7017 7.86364H80.8097V15.4659C80.8097 16.2992 80.6127 17.0322 80.2188 17.6648C79.8286 18.2973 79.2794 18.7917 78.571 19.1477C77.8627 19.5 77.035 19.6761 76.0881 19.6761C75.1373 19.6761 74.3078 19.5 73.5994 19.1477C72.8911 18.7917 72.3419 18.2973 71.9517 17.6648C71.5616 17.0322 71.3665 16.2992 71.3665 15.4659V7.86364H73.4744V15.2898C73.4744 15.7746 73.5805 16.2064 73.7926 16.5852C74.0085 16.964 74.3116 17.2614 74.7017 17.4773C75.0919 17.6894 75.554 17.7955 76.0881 17.7955C76.6222 17.7955 77.0843 17.6894 77.4744 17.4773C77.8684 17.2614 78.1714 16.964 78.3835 16.5852C78.5956 16.2064 78.7017 15.7746 78.7017 15.2898V7.86364ZM83.1009 7.86364H85.6804L89.1349 16.2955H89.2713L92.7259 7.86364H95.3054V19.5H93.2827V11.5057H93.1747L89.9588 19.4659H88.4474L85.2315 11.4886H85.1236V19.5H83.1009V7.86364Z" fill="#324054"/>
</svg>
