<svg width="16" height="16" viewBox="0 0 16 16" fill="none" xmlns="http://www.w3.org/2000/svg">
<path d="M8.39325 8.66665L6.85992 10.1933C6.79743 10.2553 6.74784 10.329 6.71399 10.4103C6.68015 10.4915 6.66272 10.5786 6.66272 10.6667C6.66272 10.7547 6.68015 10.8418 6.71399 10.923C6.74784 11.0043 6.79743 11.078 6.85992 11.14C6.92189 11.2025 6.99563 11.2521 7.07687 11.2859C7.15811 11.3198 7.24524 11.3372 7.33325 11.3372C7.42126 11.3372 7.5084 11.3198 7.58964 11.2859C7.67088 11.2521 7.74461 11.2025 7.80659 11.14L10.4733 8.47332C10.5339 8.40992 10.5815 8.33515 10.6133 8.25332C10.6799 8.09101 10.6799 7.90896 10.6133 7.74665C10.5815 7.66482 10.5339 7.59005 10.4733 7.52665L7.80659 4.85999C7.74443 4.79783 7.67063 4.74852 7.58942 4.71488C7.5082 4.68124 7.42116 4.66392 7.33325 4.66392C7.24535 4.66392 7.1583 4.68124 7.07709 4.71488C6.99587 4.74852 6.92208 4.79783 6.85992 4.85999C6.79776 4.92214 6.74845 4.99594 6.71481 5.07715C6.68117 5.15837 6.66386 5.24541 6.66386 5.33332C6.66386 5.42122 6.68117 5.50827 6.71481 5.58949C6.74845 5.6707 6.79776 5.74449 6.85992 5.80665L8.39325 7.33332H1.99992C1.82311 7.33332 1.65354 7.40356 1.52851 7.52858C1.40349 7.65361 1.33325 7.82317 1.33325 7.99999C1.33325 8.1768 1.40349 8.34637 1.52851 8.47139C1.65354 8.59641 1.82311 8.66665 1.99992 8.66665H8.39325ZM7.99992 1.33332C6.75398 1.32776 5.53141 1.67146 4.4709 2.32545C3.41038 2.97943 2.55435 3.91752 1.99992 5.03332C1.92035 5.19245 1.90726 5.37667 1.96352 5.54545C2.01978 5.71423 2.14079 5.85375 2.29992 5.93332C2.45905 6.01288 2.64327 6.02598 2.81205 5.96972C2.98083 5.91345 3.12035 5.79245 3.19992 5.63332C3.62138 4.7822 4.26247 4.05906 5.05695 3.53864C5.85143 3.01822 6.77047 2.7194 7.71909 2.67305C8.66771 2.6267 9.6115 2.8345 10.4529 3.27499C11.2944 3.71548 12.0029 4.37267 12.5053 5.17865C13.0078 5.98463 13.2858 6.91015 13.3109 7.85957C13.3359 8.809 13.1069 9.74788 12.6476 10.5792C12.1883 11.4105 11.5153 12.1041 10.6983 12.5883C9.88121 13.0724 8.94967 13.3297 7.99992 13.3333C7.00584 13.3376 6.03069 13.0616 5.18638 12.5368C4.34207 12.0121 3.66282 11.2599 3.22659 10.3667C3.14702 10.2075 3.0075 10.0865 2.83872 10.0303C2.66993 9.974 2.48572 9.98709 2.32659 10.0667C2.16746 10.1462 2.04645 10.2857 1.99019 10.4545C1.93393 10.6233 1.94702 10.8075 2.02659 10.9667C2.55514 12.0303 3.35827 12.9335 4.3529 13.5827C5.34753 14.2319 6.49755 14.6036 7.684 14.6593C8.87045 14.715 10.0502 14.4528 11.1013 13.8997C12.1525 13.3465 13.0367 12.5226 13.6626 11.5132C14.2886 10.5038 14.6334 9.34541 14.6616 8.15799C14.6897 6.97056 14.4001 5.79718 13.8227 4.75921C13.2454 3.72123 12.4011 2.85636 11.3774 2.25406C10.3537 1.65175 9.18768 1.33388 7.99992 1.33332Z" fill="#121212"/>
</svg>
