<svg width="24" height="24" viewBox="0 0 24 24" fill="none" xmlns="http://www.w3.org/2000/svg">
<path d="M19.8824 4.88128L19.1465 4.14533C18.9385 3.93734 18.5545 3.96935 18.3145 4.2573L15.7543 6.80126C14.6023 6.30532 13.3384 6.06532 12.0103 6.06532C8.0582 6.08126 4.63442 8.38523 2.9863 11.6974C2.89028 11.9054 2.89028 12.1614 2.9863 12.3373C3.75424 13.9054 4.90631 15.2014 6.34631 16.1773L4.25032 18.3053C4.01032 18.5453 3.97831 18.9293 4.13835 19.1373L4.8743 19.8732C5.08229 20.0812 5.46628 20.0492 5.70628 19.7613L19.7542 5.71339C20.0582 5.47352 20.0902 5.08956 19.8822 4.88155L19.8824 4.88128ZM12.8583 9.71316C12.5863 9.64914 12.2984 9.56919 12.0263 9.56919C10.6663 9.56919 9.5784 10.6572 9.5784 12.0171C9.5784 12.2891 9.64242 12.5771 9.72237 12.8491L8.65025 13.9051C8.3303 13.3452 8.15431 12.7211 8.15431 12.0172C8.15431 9.88918 9.86634 8.17715 11.9943 8.17715C12.6984 8.17715 13.3223 8.35314 13.8823 8.6731L12.8583 9.71316Z" fill="#666666" fill-opacity="0.8"/>
<path d="M21.0344 11.6974C20.4745 10.5773 19.7384 9.56939 18.8265 8.75336L15.8505 11.6974V12.0173C15.8505 14.1453 14.1384 15.8573 12.0105 15.8573H11.6905L9.80251 17.7453C10.5066 17.8893 11.2425 17.9853 11.9625 17.9853C15.9146 17.9853 19.3384 15.6813 20.9865 12.3532C21.1305 12.1291 21.1305 11.9052 21.0345 11.6972L21.0344 11.6974Z" fill="#666666" fill-opacity="0.8"/>
</svg>
