<svg width="21" height="20" viewBox="0 0 21 20" fill="none" xmlns="http://www.w3.org/2000/svg">
<g clip-path="url(#clip0_164_1221)">
<path d="M12.3333 13.75C13.0237 13.75 13.5833 14.3097 13.5833 15C13.5833 15.6497 13.0876 16.1837 12.4537 16.2443L12.3333 16.25H9C8.30964 16.25 7.75 15.6903 7.75 15C7.75 14.3503 8.24574 13.8163 8.87962 13.7557L9 13.75H12.3333ZM14.8333 8.75C15.5237 8.75 16.0833 9.30967 16.0833 10C16.0833 10.6903 15.5237 11.25 14.8333 11.25H6.5C5.80964 11.25 5.25 10.6903 5.25 10C5.25 9.30967 5.80964 8.75 6.5 8.75H14.8333ZM17.3333 3.75C18.0237 3.75 18.5833 4.30964 18.5833 5C18.5833 5.69036 18.0237 6.25 17.3333 6.25H4C3.30964 6.25 2.75 5.69036 2.75 5C2.75 4.30964 3.30964 3.75 4 3.75H17.3333Z" fill="#202223"/>
</g>
<defs>
<clipPath id="clip0_164_1221">
<rect width="20" height="20" fill="white" transform="translate(0.666687)"/>
</clipPath>
</defs>
</svg>
