<svg width="14" height="13" viewBox="0 0 14 13" fill="none" xmlns="http://www.w3.org/2000/svg">
<path fill-rule="evenodd" clip-rule="evenodd" d="M0.666626 1.83333C0.666626 1.47971 0.807102 1.14057 1.05715 0.890524C1.3072 0.640476 1.64634 0.5 1.99996 0.5H5.67996C5.8798 0.500025 6.07709 0.544972 6.25722 0.631519C6.43735 0.718065 6.59572 0.843997 6.72063 1L7.65396 2.16667H12.6666C13.0202 2.16667 13.3594 2.30714 13.6094 2.55719C13.8595 2.80724 14 3.14638 14 3.5V11.1667C14 11.5203 13.8595 11.8594 13.6094 12.1095C13.3594 12.3595 13.0202 12.5 12.6666 12.5H1.99996C1.64634 12.5 1.3072 12.3595 1.05715 12.1095C0.807102 11.8594 0.666626 11.5203 0.666626 11.1667V1.83333ZM6.86196 5.282C6.98698 5.15702 7.15652 5.08681 7.33329 5.08681C7.51007 5.08681 7.67961 5.15702 7.80463 5.282L9.21863 6.696C9.2823 6.7575 9.33309 6.83106 9.36803 6.9124C9.40297 6.99373 9.42136 7.08121 9.42213 7.16973C9.42289 7.25825 9.40603 7.34604 9.37251 7.42797C9.33899 7.5099 9.28948 7.58434 9.22689 7.64693C9.16429 7.70953 9.08986 7.75903 9.00793 7.79255C8.926 7.82607 8.83821 7.84294 8.74969 7.84217C8.66117 7.8414 8.57369 7.82301 8.49236 7.78807C8.41102 7.75313 8.33746 7.70234 8.27596 7.63867L7.99996 7.36267V9.16667C7.99996 9.34348 7.92972 9.51305 7.8047 9.63807C7.67967 9.7631 7.5101 9.83333 7.33329 9.83333C7.15648 9.83333 6.98691 9.7631 6.86189 9.63807C6.73686 9.51305 6.66663 9.34348 6.66663 9.16667V7.36267L6.39063 7.63867C6.32913 7.70234 6.25556 7.75313 6.17423 7.78807C6.09289 7.82301 6.00541 7.8414 5.91689 7.84217C5.82837 7.84294 5.74059 7.82607 5.65866 7.79255C5.57673 7.75903 5.50229 7.70953 5.4397 7.64693C5.3771 7.58434 5.3276 7.5099 5.29408 7.42797C5.26056 7.34604 5.24369 7.25825 5.24446 7.16973C5.24523 7.08121 5.26362 6.99373 5.29856 6.9124C5.3335 6.83106 5.38429 6.7575 5.44796 6.696L6.86129 5.282H6.86196Z" fill="white"/>
</svg>
